<svg id="Ebene_1" data-name="Ebene 1" xmlns="http://www.w3.org/2000/svg" viewBox="0 0 244.52 208.24"><defs><style>.cls-1{fill:none;stroke:#ffe94e;stroke-linecap:round;stroke-linejoin:round;stroke-width:5px;}</style></defs><path class="cls-1" d="M56.45,170.74s-19.16-26.6,13.65-52.4,53.9-3.72,53.9-3.72-12.88,1.9-30.38,17.91S82.75,163.56,56.45,170.74Z"/><path class="cls-1" d="M128.78,121s19.17,26.6-13.65,52.4-53.9,3.72-53.9,3.72,12.88-1.9,30.38-17.9S102.49,128.21,128.78,121Z"/><path class="cls-1" d="M29.11,44.17S38.86,12.86,79.2,23.6s35.36,40.85,35.36,40.85S105.3,55.29,82,50.92,50.65,60.87,29.11,44.17Z"/><path class="cls-1" d="M112.3,72.12s-9.74,31.3-50.09,20.57S26.86,51.84,26.86,51.84,36.12,61,59.42,65.36,90.77,55.41,112.3,72.12Z"/><path class="cls-1" d="M135.91,100.33s-13.12-30,24.41-48.33,53.47,7.75,53.47,7.75-13-.86-33.48,11.08S163.12,98.87,135.91,100.33Z"/><path class="cls-1" d="M217.11,67s13.11,30.05-24.42,48.33-53.47-7.75-53.47-7.75,13,.86,33.48-11.09S189.89,68.49,217.11,67Z"/></svg>