<?xml version="1.0" encoding="utf-8"?>
<!-- Generator: Adobe Illustrator 25.3.1, SVG Export Plug-In . SVG Version: 6.00 Build 0)  -->
<svg version="1.1" id="Ebene_1" xmlns="http://www.w3.org/2000/svg" xmlns:xlink="http://www.w3.org/1999/xlink" x="0px" y="0px"
	 viewBox="0 0 122.08 26.89" style="enable-background:new 0 0 122.08 26.89;" xml:space="preserve">
<style type="text/css">
	.st0{fill:#5EDECF;}
</style>
<g id="fühlbar">
	<g>
		<path class="st0" d="M7.31,6.75V7.5h4.22v4.69H7.31v14.06H2.5V12.19H0V7.5h2.5V6.75C2.5,2.66,4.2,0,8,0
			c1.2,0.03,2.39,0.24,3.53,0.62v4.43c-0.65-0.31-1.36-0.49-2.08-0.52c-1.17-0.01-2.13,0.93-2.14,2.1C7.31,6.67,7.31,6.71,7.31,6.75
			z"/>
		<path class="st0" d="M14.19,17.72V7.5H19v10.2c0,2.57,1.36,4.1,3.47,4.1s3.62-1.53,3.62-4.1V7.5h4.81v10.22
			c0,5.11-3.5,8.76-8.43,8.76S14.19,22.81,14.19,17.72z M17.09,3c-0.08-1.04,0.71-1.95,1.75-2.02c1.04-0.08,1.95,0.71,2.02,1.75
			c0.01,0.09,0.01,0.18,0,0.27c-0.08,1.04-0.98,1.82-2.02,1.75C17.9,4.68,17.16,3.94,17.09,3z M24.09,3
			c-0.08-1.04,0.71-1.95,1.75-2.02c1.04-0.08,1.95,0.71,2.02,1.75c0.01,0.09,0.01,0.18,0,0.27c0.01,1.04-0.82,1.89-1.86,1.91
			c-1.04,0.01-1.88-0.83-1.89-1.87c0-0.01,0-0.03,0-0.04H24.09z"/>
		<path class="st0" d="M52,16.11v10.14h-4.81V16.11c0-3.28-1.22-4.42-3.63-4.42s-3.78,1.61-3.78,4.42v10.14H35V0.47h4.81v8.76
			c1.4-1.45,3.34-2.26,5.36-2.23C48.77,7,52,8.8,52,16.11z"/>
		<path class="st0" d="M56.06,0.47h4.82v25.78h-4.82V0.47z"/>
		<path class="st0" d="M84.75,16.91c0,4.9-3.34,10-9.13,10c-2.31,0.08-4.52-0.92-6-2.69l-0.2,2.05h-4.5V0.47h4.81v9
			c1.47-1.67,3.61-2.6,5.83-2.53C80.88,6.89,84.75,11.41,84.75,16.91z M79.94,16.84c-0.01-2.84-2.3-5.13-5.14-5.14
			c-2.76,0-5,2.24-5,5c0,0.05,0,0.11,0,0.16c-0.12,2.76,2.02,5.09,4.78,5.22c0.07,0,0.15,0,0.22,0c2.85-0.01,5.15-2.33,5.14-5.18
			C79.94,16.88,79.94,16.86,79.94,16.84z"/>
		<path class="st0" d="M106.59,7.5v18.75h-4.5l-0.2-2.06c-1.48,1.77-3.69,2.76-6,2.69c-5.79,0-9.13-5.08-9.13-10
			c0-5.5,3.88-10,9.17-10c2.28-0.07,4.47,0.9,5.94,2.65l0.2-2L106.59,7.5z M101.78,16.84c0.08-2.76-2.09-5.06-4.85-5.15
			c-0.05,0-0.1,0-0.15,0c-2.86,0.13-5.08,2.55-4.96,5.41c0.12,2.69,2.27,4.84,4.96,4.96c2.76,0,5-2.23,5-5
			C101.78,16.99,101.78,16.91,101.78,16.84z"/>
		<path class="st0" d="M122.08,6.72L121.3,12c-0.19,0-0.41,0-0.63,0c-2.11,0-5.2,0.82-5.2,6.47v7.8h-4.81V7.5h4.5l0.25,2.52
			C117,7.94,119.46,6.72,122.08,6.72z"/>
	</g>
</g>
</svg>
