<svg id="Ebene_1" data-name="Ebene 1" xmlns="http://www.w3.org/2000/svg" viewBox="0 0 466.7 273.32"><defs><style>.cls-1{fill:#ffe94e;}.cls-2{fill:none;stroke:#ffe94e;stroke-linecap:round;stroke-linejoin:round;stroke-width:5px;}</style></defs><path class="cls-1" d="M46,171.39q-3.81,5.45-7.68,10.83L30.55,193l-.95-2q19.82-.66,39.62-1c6.6-.07,13.2-.2,19.81-.23l19.8-.09c13.21,0,26.42.07,39.62.29s26.41.49,39.62.91l-.94,2.19-9.49-10.79-4.71-5.43-4.65-5.48,5.24,4.92,5.19,5,10.29,10a1.27,1.27,0,0,1-.84,2.18h-.09c-13.21.42-26.41.75-39.62.92s-26.41.24-39.62.28L89,194.6c-6.61,0-13.21-.15-19.81-.23q-19.81-.28-39.62-1h-.09a1.19,1.19,0,0,1-1.15-1.23,1.16,1.16,0,0,1,.29-.73l8.63-10.08C40.16,178,43.09,174.7,46,171.39Z"/><path class="cls-1" d="M29.6,192.2l2.49,6.63,2.45,6.65c1.64,4.42,3.23,8.87,4.82,13.31l-1-.73q19.64-.59,39.28-.89l9.82-.16,9.82-.11,19.64-.18c13.1,0,26.19-.16,39.29-.07l19.64.07,19.64.2-2.12,2.78c-2.41-9-4.68-18-7-27v0a1.74,1.74,0,0,1,.39-1.59c3.2-3.53,6.45-7,9.68-10.52s6.46-7,9.72-10.48q9.75-10.46,19.68-20.76-8.94,11.19-18.08,22.17-4.53,5.52-9.15,11c-3.06,3.65-6.1,7.32-9.19,11l.37-1.64c2.62,8.93,5.3,17.85,7.84,26.8a2.2,2.2,0,0,1-1.51,2.7,2.23,2.23,0,0,1-.56.08h0l-19.64.2-19.64.07c-13.1.09-26.19,0-39.29-.06l-19.64-.19-9.82-.1-9.82-.17q-19.64-.31-39.28-.89H38.3a1,1,0,0,1-.94-.73c-1.33-4.53-2.66-9.06-3.94-13.6L31.49,199Z"/><path class="cls-1" d="M195.49,219.12l20.71-29.07,20.8-29,.07,1.06L205,129.57l1.88,0L169.5,172.47a1.57,1.57,0,0,1-1.19.55h0l-61.13.38c-20.37.16-40.75.16-61.12.24a2.25,2.25,0,0,1-1.6-3.84h0l55.18-54.88,55.26-54.8a2.48,2.48,0,0,1,1.75-.72l43.81,0h0a2.44,2.44,0,0,1,.71,4.78L176,71.86l1.71-2.31,0,23-.63-1.6,54,59.31,53.84,59.46-1.48-.5,37.55-6.34c12.51-2.11,25-4.23,37.56-6.27l75.15-12.35-.23.28.28-20.81.28,20.81a.29.29,0,0,1-.23.28h0l-74.88,13.94c-12.47,2.34-25,4.6-37.45,6.86l-37.47,6.81a1.62,1.62,0,0,1-1.46-.48l0,0-54.57-58.8-54.4-59a2.36,2.36,0,0,1-.62-1.59v0l0-23a2.41,2.41,0,0,1,1.71-2.31h0l25.19-7.69.71,4.77-43.81.05,1.75-.72L103,118.36,47.61,173,46,169.14c20.37.08,40.75.08,61.12.24l61.13.38-1.22.55L205,127.84l0,0a1.26,1.26,0,0,1,1.78-.1l.08.07L238.26,161h0a.81.81,0,0,1,.06,1.05L217,190.6Z"/><polygon class="cls-2" points="200.44 61.88 305.56 156.06 406.31 140.73 300.09 48.74 200.44 61.88"/><path class="cls-1" d="M406.31,140.73q7.08,5.47,14.11,11c4.69,3.67,9.34,7.41,14,11.11a1.14,1.14,0,0,1,.18,1.6,1.09,1.09,0,0,1-.7.41l-.08,0q-9,1.47-17.95,2.85c-6,.88-12,1.81-18,2.65l-18,2.51-18,2.34c-6,.8-12,1.47-18,2.21l-9,1.08-9,1c-6,.68-12,1.34-18.07,1.93l-9,.92-9,.83h-.08a1.39,1.39,0,0,1-1.52-1.26,1.36,1.36,0,0,1,.23-.89c2.8-4.22,5.68-8.38,8.54-12.56s5.78-8.31,8.73-12.43c-2.4,4.46-4.86,8.89-7.34,13.3s-5,8.82-7.54,13.18l-1.37-2.15,9-1.42,9-1.34c6-.92,12-1.76,18-2.59l9-1.26,9-1.18c6-.76,12-1.6,18-2.3l18-2.18,18.06-2c6-.66,12.05-1.24,18.08-1.86s12.06-1.14,18.1-1.67l-.6,2c-4.45-4-8.94-7.89-13.37-11.88S410.72,144.74,406.31,140.73Z"/><path class="cls-1" d="M175.25,69.55c10.14,8.72,20,17.73,29.79,26.8s19.46,18.29,29,27.59,19.07,18.67,28.5,28.12,18.74,19,27.92,28.71l.07.08a1.34,1.34,0,0,1,.33,1.23c-.57,2.4-1.12,4.8-1.72,7.2l-1.77,7.19c-1.21,4.79-2.44,9.57-3.74,14.34q1-7.35,2.09-14.67l1.14-7.32c.37-2.44.79-4.87,1.19-7.31l.4,1.31c-9.86-9-19.55-18.19-29.2-27.42s-19.17-18.57-28.61-28-18.83-18.93-28.1-28.53S184.15,79.53,175.25,69.55Z"/><path class="cls-1" d="M46,201.18a14.55,14.55,0,0,1,3.22,3.92,20.65,20.65,0,0,1,2.69,9,14.3,14.3,0,0,1-.54,5.05,14.59,14.59,0,0,1-3.23-3.92,20.82,20.82,0,0,1-2.68-9A14.51,14.51,0,0,1,46,201.18Z"/><path class="cls-1" d="M57,201.18a14.55,14.55,0,0,1,3.22,3.92,20.65,20.65,0,0,1,2.69,9,14.3,14.3,0,0,1-.54,5.05,14.36,14.36,0,0,1-3.22-3.92,20.06,20.06,0,0,1-1.86-4.33,21.09,21.09,0,0,1-.83-4.64A14.51,14.51,0,0,1,57,201.18Z"/><path class="cls-1" d="M67.93,201.18a14.55,14.55,0,0,1,3.22,3.92A20.57,20.57,0,0,1,73,209.43a20,20,0,0,1,.83,4.64,14.3,14.3,0,0,1-.54,5.05,14.36,14.36,0,0,1-3.22-3.92,20.46,20.46,0,0,1-2.68-9A14.26,14.26,0,0,1,67.93,201.18Z"/><path class="cls-1" d="M78.88,201.18a14.55,14.55,0,0,1,3.22,3.92A20.57,20.57,0,0,1,84,209.43a20,20,0,0,1,.83,4.64,14.3,14.3,0,0,1-.54,5.05A14.36,14.36,0,0,1,81,215.2a20.46,20.46,0,0,1-2.68-9A14.49,14.49,0,0,1,78.88,201.18Z"/><path class="cls-1" d="M89.83,201.18a14.55,14.55,0,0,1,3.22,3.92,20.57,20.57,0,0,1,1.86,4.33,20,20,0,0,1,.83,4.64,14.3,14.3,0,0,1-.54,5.05A14.36,14.36,0,0,1,92,215.2a20.46,20.46,0,0,1-2.68-9A14.49,14.49,0,0,1,89.83,201.18Z"/><path class="cls-1" d="M100.78,201.18A14.55,14.55,0,0,1,104,205.1a20.57,20.57,0,0,1,1.86,4.33,20,20,0,0,1,.83,4.64,14.28,14.28,0,0,1-.53,5.05,14.41,14.41,0,0,1-3.23-3.92,20.57,20.57,0,0,1-1.86-4.33,21.08,21.08,0,0,1-.82-4.64A14.49,14.49,0,0,1,100.78,201.18Z"/><path class="cls-1" d="M111.73,201.18A14.55,14.55,0,0,1,115,205.1a20.84,20.84,0,0,1,2.7,9,14.53,14.53,0,0,1-.54,5.05,14.41,14.41,0,0,1-3.23-3.92,20,20,0,0,1-1.85-4.33,20.52,20.52,0,0,1-.83-4.64A14.49,14.49,0,0,1,111.73,201.18Z"/><path class="cls-1" d="M122.68,201.18a14.36,14.36,0,0,1,3.22,3.92,20.57,20.57,0,0,1,1.86,4.33,20,20,0,0,1,.84,4.64,14.3,14.3,0,0,1-.54,5.05,14.41,14.41,0,0,1-3.23-3.92,20,20,0,0,1-1.85-4.33,20.52,20.52,0,0,1-.83-4.64A14.49,14.49,0,0,1,122.68,201.18Z"/><path class="cls-1" d="M133.63,201.18a14.36,14.36,0,0,1,3.22,3.92,21.14,21.14,0,0,1,1.87,4.33,20.52,20.52,0,0,1,.83,4.64,14.3,14.3,0,0,1-.54,5.05,14.41,14.41,0,0,1-3.23-3.92,20,20,0,0,1-1.85-4.33,20.52,20.52,0,0,1-.83-4.64A14.49,14.49,0,0,1,133.63,201.18Z"/><path class="cls-1" d="M144.59,201.18a14.74,14.74,0,0,1,3.22,3.92,21.1,21.1,0,0,1,1.86,4.33,20.52,20.52,0,0,1,.83,4.64,14.3,14.3,0,0,1-.54,5.05,14.41,14.41,0,0,1-3.23-3.92,20,20,0,0,1-1.85-4.33,20.52,20.52,0,0,1-.83-4.64A14.28,14.28,0,0,1,144.59,201.18Z"/><path class="cls-1" d="M155.54,201.18a14.55,14.55,0,0,1,3.22,3.92,20.65,20.65,0,0,1,2.69,9,14.3,14.3,0,0,1-.54,5.05,14.41,14.41,0,0,1-3.23-3.92,20,20,0,0,1-1.85-4.33,20.52,20.52,0,0,1-.83-4.64A14.51,14.51,0,0,1,155.54,201.18Z"/><path class="cls-1" d="M166.49,201.18a14.55,14.55,0,0,1,3.22,3.92,20.65,20.65,0,0,1,2.69,9,14.3,14.3,0,0,1-.54,5.05,14.41,14.41,0,0,1-3.23-3.92,20.82,20.82,0,0,1-2.68-9A14.51,14.51,0,0,1,166.49,201.18Z"/><path class="cls-1" d="M177.44,201.18a14.55,14.55,0,0,1,3.22,3.92,20.65,20.65,0,0,1,2.69,9,14.3,14.3,0,0,1-.54,5.05,14.36,14.36,0,0,1-3.22-3.92,20.06,20.06,0,0,1-1.86-4.33,21.09,21.09,0,0,1-.83-4.64A14.51,14.51,0,0,1,177.44,201.18Z"/><path class="cls-1" d="M196.09,198.31a10.48,10.48,0,0,1,3,3,13,13,0,0,1,1.6,3.4,12.68,12.68,0,0,1,.58,3.71,10.36,10.36,0,0,1-.79,4.13,10.25,10.25,0,0,1-3-3,13.11,13.11,0,0,1-2.17-7.12A10.36,10.36,0,0,1,196.09,198.31Z"/><path class="cls-1" d="M199,194.07a10.33,10.33,0,0,1,3,3,13.17,13.17,0,0,1,1.6,3.4,12.75,12.75,0,0,1,.58,3.72,10.36,10.36,0,0,1-.79,4.13,10.25,10.25,0,0,1-3-3,13.18,13.18,0,0,1-2.17-7.12A10.36,10.36,0,0,1,199,194.07Z"/><path class="cls-1" d="M202.15,190.16a10.23,10.23,0,0,1,3,3,13,13,0,0,1,2.18,7.11,10.19,10.19,0,0,1-.79,4.13,10.25,10.25,0,0,1-3-3,13,13,0,0,1-2.16-7.12A10.34,10.34,0,0,1,202.15,190.16Z"/><path class="cls-1" d="M205.55,186.2a10.35,10.35,0,0,1,3,3,13,13,0,0,1,2.18,7.11,10.23,10.23,0,0,1-.79,4.14,10.27,10.27,0,0,1-3-3,13.21,13.21,0,0,1-2.16-7.12A10.55,10.55,0,0,1,205.55,186.2Z"/><path class="cls-1" d="M208.81,181.79a10.35,10.35,0,0,1,3,3,13,13,0,0,1,2.18,7.11,10.23,10.23,0,0,1-.79,4.14,10.27,10.27,0,0,1-3-3,13.21,13.21,0,0,1-2.16-7.12A10.51,10.51,0,0,1,208.81,181.79Z"/><path class="cls-1" d="M211.79,177.49a10.33,10.33,0,0,1,3,3,12.88,12.88,0,0,1,1.61,3.4,13.09,13.09,0,0,1,.57,3.72,10.19,10.19,0,0,1-.79,4.13,10.15,10.15,0,0,1-3-3,12.53,12.53,0,0,1-1.59-3.4,12.68,12.68,0,0,1-.57-3.71A10.31,10.31,0,0,1,211.79,177.49Z"/><path class="cls-1" d="M215.32,172.84a10.23,10.23,0,0,1,3,3,12.73,12.73,0,0,1,1.61,3.4,13,13,0,0,1,.57,3.71,10.19,10.19,0,0,1-.79,4.13,10.25,10.25,0,0,1-3-3,13.21,13.21,0,0,1-2.16-7.12A10.34,10.34,0,0,1,215.32,172.84Z"/><path class="cls-1" d="M218.54,168.32a10.27,10.27,0,0,1,3,3,12.87,12.87,0,0,1,1.6,3.4,12.68,12.68,0,0,1,.57,3.71,10.19,10.19,0,0,1-.79,4.13,10.37,10.37,0,0,1-3-3,13.21,13.21,0,0,1-2.16-7.12A10.51,10.51,0,0,1,218.54,168.32Z"/><path class="cls-1" d="M222,164.27a10.35,10.35,0,0,1,3,3,12.73,12.73,0,0,1,1.61,3.4,13,13,0,0,1,.57,3.71,10.23,10.23,0,0,1-.79,4.14,10.27,10.27,0,0,1-3-3,13.21,13.21,0,0,1-2.16-7.12A10.34,10.34,0,0,1,222,164.27Z"/><path class="cls-1" d="M225.25,159.57a10.46,10.46,0,0,1,3,3,13.23,13.23,0,0,1,2.18,7.12,10.21,10.21,0,0,1-.8,4.13,10.2,10.2,0,0,1-3-3,12.76,12.76,0,0,1-1.6-3.41,13,13,0,0,1-.57-3.71A10.36,10.36,0,0,1,225.25,159.57Z"/><path class="cls-1" d="M228.58,155a10.36,10.36,0,0,1,3,3,13.24,13.24,0,0,1,2.18,7.11,10.21,10.21,0,0,1-.8,4.13,10.2,10.2,0,0,1-3-3,12.85,12.85,0,0,1-1.6-3.4,13.14,13.14,0,0,1-.57-3.72A10.36,10.36,0,0,1,228.58,155Z"/><line class="cls-2" x1="300.51" y1="181.79" x2="295.13" y2="208.3"/><line class="cls-2" x1="314.82" y1="180.36" x2="309.43" y2="206.87"/><line class="cls-2" x1="329.12" y1="177.5" x2="323.74" y2="204.01"/><line class="cls-2" x1="343.43" y1="174.64" x2="338.04" y2="201.15"/><line class="cls-2" x1="357.73" y1="173.21" x2="352.35" y2="199.72"/><line class="cls-2" x1="372.04" y1="170.35" x2="366.65" y2="196.86"/><line class="cls-2" x1="385.89" y1="171.14" x2="381.3" y2="193.71"/><line class="cls-2" x1="400.19" y1="168.28" x2="395.61" y2="190.85"/><line class="cls-2" x1="414.5" y1="165.42" x2="409.91" y2="187.99"/><line class="cls-2" x1="428.22" y1="165.42" x2="424.22" y2="185.13"/></svg>